<svg width="64" height="64" viewBox="0 0 64 64" fill="none" xmlns="http://www.w3.org/2000/svg">
<rect width="64" height="64" rx="8" fill="white"/>
<path fill-rule="evenodd" clip-rule="evenodd" d="M31.6069 51.9999C39.674 51.9999 46.2138 45.3913 46.2138 37.2393C46.2138 29.0872 39.674 22.4786 31.6069 22.4786C23.5397 22.4786 17 29.0872 17 37.2393C17 45.3913 23.5397 51.9999 31.6069 51.9999ZM31.6069 43.8508C35.0885 43.8508 37.9109 40.8908 37.9109 37.2393C37.9109 33.5879 35.0885 30.6278 31.6069 30.6278C28.1253 30.6278 25.3029 33.5879 25.3029 37.2393C25.3029 40.8908 28.1253 43.8508 31.6069 43.8508Z" fill="#1C1C1F"/>
<path d="M31.7075 22.1844C23.6622 22.1844 17.2021 28.4826 17.2021 36.6388C17.2021 44.7949 23.6622 51.0931 31.7075 51.0931C39.7528 51.0931 46.2129 44.7949 46.2129 36.6388C46.2215 28.4741 39.7613 22.1844 31.7075 22.1844ZM31.7075 43.0904C28.1451 43.0904 25.4093 40.5165 25.4093 36.6302C25.4093 32.7439 28.1451 30.1701 31.7075 30.1701C35.2699 30.1701 38.0057 32.7439 38.0057 36.6302C38.0057 40.5165 35.2699 43.0904 31.7075 43.0904Z" fill="#1C1C1F"/>
<path d="M25.324 12L20.9178 19.5084C24.5911 19.5084 29.5257 19.5084 33.1989 19.5084C34.6392 19.5084 36.0881 19.5084 37.5284 19.5084L33.037 12H25.324Z" fill="#F7B40D"/>
<path d="M42.9659 19.5766L38.5256 12H34.5541L39.0881 19.5766H42.9659Z" fill="#ED0394"/>
</svg>
